<svg width="322" height="131" viewBox="0 0 322 131" fill="none" xmlns="http://www.w3.org/2000/svg">
<path d="M71.7556 121.975C83.5597 121.975 93.1629 111.35 93.1629 98.2896C93.1629 85.2292 83.5597 74.6036 71.7556 74.6036C71.7556 74.6036 64.7331 74.3397 59.6223 78.3348C55.1246 81.482 48.0803 91.1692 48.0803 91.1692C48.2937 91.1692 58.3892 87.7622 65.5645 84.8154C69.1059 83.3611 72.6042 83.5446 72.7097 83.5529C79.6287 84.096 85.1081 90.4984 85.1081 98.2896C85.1081 106.435 79.1182 113.063 71.7556 113.063V121.975Z" fill="url(#paint0_linear_149_33)"/>
<path d="M71.6949 121.95C71.7007 121.95 71.706 121.95 71.7113 121.95C71.7113 121.95 78.6729 122.673 85.6454 116.542C95.3955 106.233 94.0101 94.6095 90.8958 87.5039C87.9503 80.7837 82.9667 78.1183 82.9667 78.1183C82.8741 78.118 94.3944 85.9899 88.7194 101.503C86.4912 106.796 80.8432 109.901 77.8499 111.433C74.4998 113.147 70.9506 113.012 70.8465 113.004C68.6749 112.848 65.4498 112.151 63.9303 110.628L63.7305 110.427L63.5079 110.258C61.0816 108.412 56.5535 102.993 51.6907 96.1149L50.4815 94.4042H50.3827C47.1946 89.9301 42.9748 84.1908 37.3763 79.1056C32.792 74.7329 25.341 74.5922 24.4133 74.5922C24.4078 74.5922 24.4025 74.5922 24.3975 74.5922L24.4039 79.0511L24.3991 83.5043C26.4859 83.5138 30.4434 84.1769 32.1779 85.9154L32.3777 86.1158L32.6 86.2848C35.1601 88.232 40.115 94.2352 45.2238 101.578L46.4331 103.316H46.5697C49.8877 107.901 54.9417 114.454 58.7322 117.437C63.3159 121.81 70.7658 121.95 71.6949 121.95Z" fill="url(#paint1_linear_149_33)"/>
<path d="M24.4037 121.975V113.063C17.0412 113.063 11.0512 106.435 11.0512 98.2896C11.0512 90.1432 17.0412 83.5157 24.4037 83.5157C24.4037 83.5157 26.4354 83.4957 29.3152 84.3269C29.9435 84.5082 32.6797 85.6688 36.8533 90.8894C42.1422 96.5447 49.109 104.88 55.4399 109.127C65.4708 115.857 72.7985 112.906 72.7985 112.906C72.7985 112.906 69.515 113.285 65.9018 111.96C62.9479 110.29 59.0623 106.367 54.9198 100.535C49.7081 92.6879 39.1622 79.9895 35.631 77.7163C30.0812 74.1129 24.2173 74.6042 24.1655 74.6048C12.4708 74.7464 2.99609 85.3169 2.99609 98.2896C2.99637 111.35 12.5999 121.975 24.4037 121.975Z" fill="url(#paint2_linear_149_33)"/>
<path d="M45.4369 84.4065C44.5421 85.6342 44.0353 86.3799 44.0353 86.3799C42.9997 87.7072 41.4634 89.8857 39.6549 92.45C39.1139 93.2172 38.5485 94.0189 37.9648 94.8426L43.7641 101.853C46.8289 98.9287 49.7445 95.8516 52.4592 92.8955L45.4369 84.4065Z" fill="#201F25"/>
<path d="M48.9191 89.0577C47.8169 90.8143 47.1971 91.8771 47.1971 91.8771C45.9132 93.7836 44.0269 96.8948 41.8064 100.557C41.1421 101.653 40.4479 102.798 39.731 103.975L48.1864 112.827C52.074 108.543 55.7463 104.067 59.1577 99.7775L48.9191 89.0577Z" fill="#201F25"/>
<path d="M24.4136 121.95C24.5374 121.95 24.777 121.948 25.1103 121.933C27.2772 121.838 33.4033 121.227 37.3766 117.437C41.5123 114.182 51.691 100.428 51.691 100.428C56.5538 93.5499 61.0819 88.1304 63.5082 86.2848L63.7308 86.1155L63.9305 85.9151C65.7502 84.0914 69.9286 83.5046 71.6835 83.5046C71.6882 83.5046 71.6929 83.5046 71.6976 83.5046L71.711 74.5922C71.706 74.5922 71.7004 74.5922 71.6946 74.5922C70.7669 74.5922 63.3159 74.7326 58.7319 79.1054C54.9414 82.0882 49.8871 88.6408 46.5694 93.2267L45.2235 94.9648C40.115 102.308 35.1598 108.311 32.6 110.258L32.3774 110.427L32.1773 110.628C30.3574 112.451 26.179 113.038 24.4244 113.038C24.4194 113.038 24.4147 113.038 24.41 113.038C24.41 113.038 14.6492 112.513 10.0861 106.172C0.894377 89.8489 10.3476 80.4387 10.3476 80.4387C10.349 80.4387 5.84012 84.2952 3.9133 91.4235C1.92999 98.7607 1.81285 109.523 12.649 118.313C17.8496 122.396 24.4113 121.95 24.4136 121.95Z" fill="url(#paint3_linear_149_33)"/>
<path d="M72.71 83.5527C72.9276 83.57 73.1441 83.5927 73.3586 83.6214V74.6693C72.8294 74.6258 72.2949 74.6034 71.7556 74.6034C71.7556 74.6034 64.7331 74.2472 59.6224 78.2422C53.6196 83.2092 48.0804 91.169 48.0804 91.169C45.4671 94.4422 38.4293 105.053 34.0344 108.993C28.7287 114.792 20.3569 112.369 20.3569 112.369C20.4415 112.369 28.6174 117.131 41.6903 107.28C52.1638 99.7019 61.237 86.5925 65.5645 84.8152C69.1062 83.3609 72.6043 83.5444 72.71 83.5527Z" fill="url(#paint4_linear_149_33)"/>
<path d="M101.826 92.8008C101.826 80.7557 111.641 74.6886 121.455 74.6886C131.27 74.6886 141.084 80.7557 141.084 92.8008V122.512H132.786V93.7822C132.786 86.466 127.165 82.897 121.544 82.897C115.834 82.897 110.213 86.466 110.213 93.7822V122.512H101.826V92.8008ZM149.749 92.8008C149.749 80.7557 159.563 74.6886 169.378 74.6886C179.192 74.6886 189.007 80.7557 189.007 92.8008V122.512H180.709V93.7822C180.709 86.466 175.088 82.897 169.467 82.897C163.757 82.897 158.135 86.466 158.135 93.7822V122.512H149.749V92.8008ZM229.613 106.72H238.535V108.236C238.535 117.694 229.256 123.85 218.728 123.85C207.753 123.85 196.422 116.802 196.422 99.314C196.422 87.0013 203.114 74.6886 218.281 74.6886C230.594 74.6886 237.554 82.3617 237.554 90.7487V96.6374C237.554 97.9757 236.394 99.1356 235.055 99.1356H205.255V99.314C205.255 110.645 212.214 115.285 218.817 115.285C224.616 115.285 229.613 112.073 229.613 106.72ZM229.167 91.6409C229.167 86.1091 223.635 82.9863 217.925 82.9863C212.571 82.9863 207.039 85.663 205.612 91.6409H229.167ZM267.442 82.7186C249.33 82.7186 249.33 115.909 267.442 115.909C274.491 115.909 278.328 111.448 278.328 106.72H287.25V108.236C287.25 115.731 281.45 123.85 267.442 123.85C237.107 123.85 237.107 74.6886 267.442 74.6886C281.45 74.6886 287.25 82.8078 287.25 90.3025V91.9085H278.328C278.328 87.1797 274.491 82.7186 267.442 82.7186ZM313.921 114.303H316.954V122.512H310.887C304.195 122.512 298.128 117.962 298.128 109.932V83.2539H291.972V76.0269H298.128V67.0154H306.426V76.0269H313.742V83.2539H306.426V107.612C306.426 112.787 309.459 114.303 313.921 114.303Z" fill="#F3F6FB"/>
<path d="M42.0473 23.9687C39.7973 22.0283 37.4958 20.5937 35.1426 19.6648C32.7895 18.736 30.3125 18.2715 27.7116 18.2715C21.8493 18.2715 17.0811 20.1293 13.4068 23.8448C9.75324 27.5603 7.92644 32.4008 7.92644 38.3663C7.92644 41.3593 8.37024 44.0531 9.25784 46.4475C10.1661 48.842 11.5388 50.9681 13.3759 52.8259C15.1923 54.6423 17.2668 56.0253 19.5994 56.9749C21.9525 57.9244 24.4708 58.3991 27.1543 58.3991C29.7551 58.3991 32.2941 57.9553 34.7711 57.0677C37.2481 56.1801 39.5909 54.8694 41.7996 53.1355V57.9657C39.5703 59.328 37.2068 60.3704 34.7091 61.0929C32.2321 61.836 29.7758 62.2075 27.34 62.2075C24.058 62.2075 20.9204 61.6193 17.9274 60.4427C14.9343 59.2661 12.3644 57.6147 10.2177 55.4886C8.00901 53.3006 6.33703 50.7617 5.20173 47.8718C4.06643 44.982 3.49878 41.8135 3.49878 38.3663C3.49878 34.981 4.07675 31.8228 5.23269 28.8917C6.40927 25.9606 8.09158 23.432 10.2796 21.3059C12.4057 19.221 14.9653 17.5903 17.9583 16.4138C20.972 15.2372 24.0993 14.6489 27.34 14.6489C30.2299 14.6489 32.903 15.0514 35.3594 15.8564C37.8364 16.6408 40.0863 17.8277 42.1092 19.4171L42.0473 23.9687ZM61.7408 58.6468C64.7545 58.6468 67.3038 57.5631 69.3886 55.3958C71.494 53.2077 72.5468 50.5346 72.5468 47.3764C72.5468 44.177 71.5044 41.4935 69.4195 39.3261C67.3347 37.1587 64.7751 36.0751 61.7408 36.0751C58.7271 36.0751 56.1778 37.1587 54.093 39.3261C52.0082 41.4935 50.9658 44.177 50.9658 47.3764C50.9658 50.5346 52.0082 53.2077 54.093 55.3958C56.1778 57.5631 58.7271 58.6468 61.7408 58.6468ZM61.6169 62.2075C59.656 62.2075 57.7776 61.8154 55.9817 61.031C54.1859 60.2672 52.5552 59.1629 51.0896 57.718C49.7066 56.3556 48.6539 54.7868 47.9314 53.0116C47.209 51.2364 46.8478 49.3374 46.8478 47.3145C46.8478 45.3122 47.2193 43.4132 47.9624 41.6174C48.7055 39.8215 49.7686 38.2321 51.1516 36.8491C52.5552 35.4455 54.1549 34.3721 55.9508 33.629C57.7466 32.8859 59.6353 32.5143 61.6169 32.5143C63.6398 32.5143 65.5595 32.8859 67.376 33.629C69.2131 34.3721 70.8438 35.4455 72.2681 36.8491C73.6924 38.2528 74.7761 39.8525 75.5192 41.6483C76.2829 43.4442 76.6648 45.3329 76.6648 47.3145C76.6648 49.2961 76.2932 51.1848 75.5501 52.9807C74.807 54.7559 73.7337 56.335 72.33 57.718C70.8851 59.1629 69.2338 60.2672 67.376 61.031C65.5389 61.8154 63.6192 62.2075 61.6169 62.2075ZM83.292 61V33.5361H86.9147V37.778C88.0293 36.0234 89.3917 34.7127 91.0018 33.8457C92.6325 32.9581 94.5005 32.5143 96.606 32.5143C99.7229 32.5143 102.148 33.3813 103.882 35.1152C105.616 36.8491 106.483 39.2642 106.483 42.3605V61H102.613V44.0634C102.613 41.3181 102.035 39.2848 100.879 37.9638C99.7435 36.6221 97.9787 35.9512 95.5842 35.9512C92.6737 35.9512 90.527 36.8182 89.144 38.5521C87.7816 40.2653 87.1005 42.9694 87.1005 46.6643V61H83.292ZM111.965 56.1079L115.587 54.0334C116.186 55.5609 117.053 56.7168 118.188 57.5012C119.324 58.265 120.717 58.6468 122.368 58.6468C123.978 58.6468 125.258 58.2443 126.208 57.4393C127.157 56.6136 127.632 55.5196 127.632 54.1573C127.632 52.0518 125.764 50.2663 122.028 48.8007C121.635 48.6562 121.326 48.5324 121.099 48.4292C118.209 47.2939 116.186 46.1276 115.03 44.9304C113.874 43.7125 113.296 42.216 113.296 40.4408C113.296 38.1083 114.122 36.1989 115.773 34.7127C117.424 33.2058 119.561 32.4524 122.182 32.4524C124.412 32.4524 126.311 32.9375 127.88 33.9077C129.448 34.8778 130.594 36.2608 131.316 38.0567L127.818 40.0073C127.384 38.7069 126.662 37.7161 125.65 37.0349C124.639 36.3537 123.4 36.0131 121.935 36.0131C120.614 36.0131 119.52 36.4053 118.653 37.1897C117.806 37.9535 117.383 38.9133 117.383 40.0692C117.383 41.2045 117.806 42.1437 118.653 42.8868C119.499 43.6299 121.254 44.4453 123.916 45.3329C126.93 46.3856 128.953 47.5312 129.985 48.7697C131.038 50.0083 131.564 51.7215 131.564 53.9095C131.564 56.4278 130.666 58.4404 128.87 59.9473C127.074 61.4541 124.659 62.2075 121.625 62.2075C119.293 62.2075 117.28 61.6812 115.587 60.6284C113.915 59.5551 112.708 58.0482 111.965 56.1079ZM150.638 58.6468C153.652 58.6468 156.201 57.5631 158.286 55.3958C160.392 53.2077 161.444 50.5346 161.444 47.3764C161.444 44.177 160.402 41.4935 158.317 39.3261C156.232 37.1587 153.673 36.0751 150.638 36.0751C147.625 36.0751 145.075 37.1587 142.991 39.3261C140.906 41.4935 139.863 44.177 139.863 47.3764C139.863 50.5346 140.906 53.2077 142.991 55.3958C145.075 57.5631 147.625 58.6468 150.638 58.6468ZM150.514 62.2075C148.554 62.2075 146.675 61.8154 144.879 61.031C143.083 60.2672 141.453 59.1629 139.987 57.718C138.604 56.3556 137.551 54.7868 136.829 53.0116C136.107 51.2364 135.745 49.3374 135.745 47.3145C135.745 45.3122 136.117 43.4132 136.86 41.6174C137.603 39.8215 138.666 38.2321 140.049 36.8491C141.453 35.4455 143.052 34.3721 144.848 33.629C146.644 32.8859 148.533 32.5143 150.514 32.5143C152.537 32.5143 154.457 32.8859 156.274 33.629C158.111 34.3721 159.741 35.4455 161.166 36.8491C162.59 38.2528 163.674 39.8525 164.417 41.6483C165.18 43.4442 165.562 45.3329 165.562 47.3145C165.562 49.2961 165.191 51.1848 164.448 52.9807C163.705 54.7559 162.631 56.335 161.228 57.718C159.783 59.1629 158.131 60.2672 156.274 61.031C154.436 61.8154 152.517 62.2075 150.514 62.2075ZM176.37 61H172.437V13.0079H176.37V61ZM187.301 47.5622C187.301 51.1126 188.095 53.8476 189.685 55.7673C191.295 57.687 193.586 58.6468 196.558 58.6468C199.448 58.6468 201.719 57.6044 203.37 55.5196C205.042 53.4141 205.878 50.5243 205.878 46.8501C205.878 43.4855 205.053 40.8433 203.401 38.9236C201.75 36.9833 199.49 36.0131 196.62 36.0131C193.751 36.0131 191.481 37.0452 189.809 39.1094C188.137 41.1529 187.301 43.9705 187.301 47.5622ZM205.816 61V55.984C204.908 58.0069 203.628 59.5551 201.977 60.6284C200.346 61.6812 198.416 62.2075 196.187 62.2075C192.244 62.2075 189.065 60.8555 186.65 58.1514C184.256 55.4474 183.059 51.8763 183.059 47.4384C183.059 43.0417 184.246 39.4603 186.619 36.6943C188.993 33.9077 192.059 32.5143 195.815 32.5143C198.148 32.5143 200.16 33.0304 201.853 34.0625C203.566 35.0739 204.887 36.5705 205.816 38.5521V33.5361H209.625V61H205.816ZM239.938 38.5521C238.659 37.6645 237.296 37.0039 235.851 36.5705C234.406 36.1163 232.92 35.8893 231.393 35.8893C227.987 35.8893 225.272 36.9833 223.249 39.1713C221.227 41.3387 220.215 44.2389 220.215 47.8718C220.215 51.0919 221.258 53.7444 223.342 55.8292C225.448 57.9141 228.131 58.9565 231.393 58.9565C232.879 58.9565 234.375 58.6984 235.882 58.1824C237.41 57.6664 238.906 56.8923 240.372 55.8602V60.0402C239.03 60.8039 237.544 61.3716 235.913 61.7431C234.283 62.1353 232.538 62.3314 230.681 62.3314C226.49 62.3314 223.053 60.9587 220.37 58.2134C217.687 55.4474 216.345 51.9176 216.345 47.6241C216.345 43.1449 217.738 39.5119 220.525 36.7253C223.332 33.918 226.975 32.5143 231.455 32.5143C233.106 32.5143 234.654 32.6795 236.099 33.0097C237.565 33.3194 238.865 33.7735 240 34.3721L239.938 38.5521ZM245.513 22.823C245.513 22.018 245.802 21.3368 246.38 20.7795C246.958 20.2015 247.649 19.9125 248.454 19.9125C249.259 19.9125 249.951 20.2015 250.529 20.7795C251.127 21.3368 251.427 22.018 251.427 22.823C251.427 23.6487 251.138 24.3402 250.56 24.8975C250.002 25.4549 249.301 25.7335 248.454 25.7335C247.629 25.7335 246.927 25.4549 246.349 24.8975C245.792 24.3402 245.513 23.6487 245.513 22.823ZM246.473 61V33.5361H250.405V61H246.473ZM272.173 58.6468C275.187 58.6468 277.736 57.5631 279.821 55.3958C281.926 53.2077 282.979 50.5346 282.979 47.3764C282.979 44.177 281.937 41.4935 279.852 39.3261C277.767 37.1587 275.207 36.0751 272.173 36.0751C269.159 36.0751 266.61 37.1587 264.525 39.3261C262.44 41.4935 261.398 44.177 261.398 47.3764C261.398 50.5346 262.44 53.2077 264.525 55.3958C266.61 57.5631 269.159 58.6468 272.173 58.6468ZM272.049 62.2075C270.088 62.2075 268.21 61.8154 266.414 61.031C264.618 60.2672 262.987 59.1629 261.522 57.718C260.139 56.3556 259.086 54.7868 258.364 53.0116C257.641 51.2364 257.28 49.3374 257.28 47.3145C257.28 45.3122 257.651 43.4132 258.395 41.6174C259.138 39.8215 260.201 38.2321 261.584 36.8491C262.987 35.4455 264.587 34.3721 266.383 33.629C268.179 32.8859 270.068 32.5143 272.049 32.5143C274.072 32.5143 275.992 32.8859 277.808 33.629C279.645 34.3721 281.276 35.4455 282.7 36.8491C284.125 38.2528 285.208 39.8525 285.951 41.6483C286.715 43.4442 287.097 45.3329 287.097 47.3145C287.097 49.2961 286.725 51.1848 285.982 52.9807C285.239 54.7559 284.166 56.335 282.762 57.718C281.317 59.1629 279.666 60.2672 277.808 61.031C275.971 61.8154 274.051 62.2075 272.049 62.2075ZM293.724 61V33.5361H297.347V37.778C298.462 36.0234 299.824 34.7127 301.434 33.8457C303.065 32.9581 304.933 32.5143 307.038 32.5143C310.155 32.5143 312.581 33.3813 314.314 35.1152C316.048 36.8491 316.915 39.2642 316.915 42.3605V61H313.045V44.0634C313.045 41.3181 312.467 39.2848 311.311 37.9638C310.176 36.6221 308.411 35.9512 306.016 35.9512C303.106 35.9512 300.959 36.8182 299.576 38.5521C298.214 40.2653 297.533 42.9694 297.533 46.6643V61H293.724Z" fill="#F3F6FB"/>
<defs>
<linearGradient id="paint0_linear_149_33" x1="48.0804" y1="98.2875" x2="93.163" y2="98.2875" gradientUnits="userSpaceOnUse">
<stop stop-color="#B6C8E8"/>
<stop offset="1" stop-color="#2269E8"/>
</linearGradient>
<linearGradient id="paint1_linear_149_33" x1="24.3975" y1="98.2845" x2="93.2081" y2="98.2845" gradientUnits="userSpaceOnUse">
<stop stop-color="#2269E8"/>
<stop offset="1" stop-color="#B6C8E8"/>
</linearGradient>
<linearGradient id="paint2_linear_149_33" x1="2.99628" y1="98.2785" x2="72.7984" y2="98.2785" gradientUnits="userSpaceOnUse">
<stop stop-color="#D4DBE7"/>
<stop offset="1" stop-color="#B6C8E8"/>
</linearGradient>
<linearGradient id="paint3_linear_149_33" x1="2.87754" y1="98.2785" x2="71.7114" y2="98.2785" gradientUnits="userSpaceOnUse">
<stop stop-color="white"/>
<stop offset="1" stop-color="#005BFF"/>
</linearGradient>
<linearGradient id="paint4_linear_149_33" x1="91.4864" y1="92.2477" x2="50.5768" y2="93.6589" gradientUnits="userSpaceOnUse">
<stop stop-color="#2269E8"/>
<stop offset="1" stop-color="#B6C8E8"/>
</linearGradient>
</defs>
</svg>
