<svg width="225" height="22" viewBox="0 0 225 22" fill="none" xmlns="http://www.w3.org/2000/svg">
<path d="M158.587 21.0239C161.773 21.0239 164.364 18.1565 164.364 14.6322C164.364 11.1078 161.773 8.24047 158.587 8.24047C158.587 8.24047 156.692 8.16928 155.313 9.24735C154.1 10.0966 152.199 12.7108 152.199 12.7108C152.256 12.7108 154.98 11.7914 156.917 10.9962C157.872 10.6037 158.816 10.6532 158.845 10.6555C160.712 10.802 162.191 12.5297 162.191 14.6322C162.191 16.8304 160.574 18.6189 158.587 18.6189V21.0239Z" fill="url(#paint0_linear_658_17)"/>
<path d="M158.571 21.0173C158.573 21.0173 158.574 21.0173 158.576 21.0173C158.576 21.0173 160.454 21.2122 162.336 19.5578C164.967 16.776 164.593 13.6393 163.752 11.7218C162.958 9.90836 161.613 9.1891 161.613 9.1891C161.588 9.18901 164.697 11.3133 163.165 15.4994C162.564 16.9278 161.04 17.7656 160.232 18.179C159.328 18.6416 158.37 18.6051 158.342 18.6031C157.756 18.5611 156.886 18.3728 156.476 17.9619L156.422 17.9078L156.362 17.8621C155.707 17.364 154.485 15.9015 153.173 14.0455L152.847 13.5839H152.82C151.96 12.3765 150.821 10.8278 149.31 9.45552C148.073 8.27551 146.062 8.23755 145.812 8.23755C145.811 8.23755 145.809 8.23755 145.808 8.23755L145.809 9.44081L145.808 10.6425C146.371 10.6451 147.439 10.824 147.907 11.2931L147.961 11.3472L148.021 11.3928C148.712 11.9183 150.049 13.5383 151.428 15.5197L151.754 15.9887H151.791C152.686 17.2261 154.05 18.9945 155.073 19.7994C156.31 20.9794 158.32 21.0173 158.571 21.0173Z" fill="url(#paint1_linear_658_17)"/>
<path d="M145.809 21.0239V18.6189C143.823 18.6189 142.206 16.8304 142.206 14.6322C142.206 12.4339 143.823 10.6454 145.809 10.6454C145.809 10.6454 146.358 10.64 147.135 10.8643C147.304 10.9132 148.043 11.2264 149.169 12.6352C150.596 14.1613 152.476 16.4106 154.185 17.5568C156.891 19.3728 158.869 18.5765 158.869 18.5765C158.869 18.5765 157.983 18.6786 157.008 18.3211C156.211 17.8704 155.162 16.8118 154.044 15.2382C152.638 13.1206 149.792 9.69386 148.839 9.08044C147.342 8.10804 145.759 8.24063 145.745 8.24079C142.589 8.27901 140.033 11.1315 140.033 14.6322C140.033 18.1565 142.624 21.0239 145.809 21.0239Z" fill="url(#paint2_linear_658_17)"/>
<path d="M151.485 10.886C151.244 11.2173 151.107 11.4185 151.107 11.4185C150.828 11.7767 150.413 12.3646 149.925 13.0566C149.779 13.2636 149.626 13.4799 149.469 13.7022L151.034 15.594C151.861 14.8049 152.648 13.9745 153.38 13.1768L151.485 10.886Z" fill="#24243F"/>
<path d="M152.425 12.1411C152.127 12.6152 151.96 12.902 151.96 12.902C151.614 13.4164 151.105 14.256 150.506 15.2443C150.326 15.54 150.139 15.8489 149.945 16.1665L152.227 18.5555C153.276 17.3992 154.267 16.1915 155.188 15.0339L152.425 12.1411Z" fill="#24243F"/>
<path d="M145.812 21.0171C145.845 21.0171 145.91 21.0164 146 21.0124C146.585 20.9866 148.238 20.8218 149.31 19.7991C150.426 18.9206 153.173 15.2092 153.173 15.2092C154.485 13.3531 155.707 11.8906 156.362 11.3926L156.422 11.3469L156.476 11.2928C156.967 10.8007 158.094 10.6423 158.568 10.6423C158.569 10.6423 158.571 10.6423 158.572 10.6423L158.575 8.2373C158.574 8.2373 158.573 8.2373 158.571 8.2373C158.321 8.2373 156.31 8.27519 155.073 9.45519C154.05 10.2601 152.686 12.0284 151.791 13.2659L151.428 13.7349C150.049 15.7165 148.712 17.3363 148.021 17.8618L147.961 17.9074L147.907 17.9615C147.416 18.4537 146.288 18.6121 145.815 18.6121C145.814 18.6121 145.812 18.6121 145.811 18.6121C145.811 18.6121 143.177 18.4705 141.946 16.7591C139.465 12.3544 142.016 9.81499 142.016 9.81499C142.017 9.81499 140.8 10.8557 140.28 12.7793C139.745 14.7592 139.713 17.6634 142.637 20.0353C144.041 21.1372 145.811 21.0171 145.812 21.0171Z" fill="url(#paint3_linear_658_17)"/>
<path d="M158.845 10.6555C158.904 10.6601 158.962 10.6663 159.02 10.674V8.25826C158.877 8.24655 158.733 8.24048 158.587 8.24048C158.587 8.24048 156.692 8.14436 155.313 9.22244C153.693 10.5628 152.199 12.7108 152.199 12.7108C151.493 13.594 149.594 16.4575 148.408 17.5207C146.977 19.0854 144.717 18.4318 144.717 18.4318C144.74 18.4318 146.947 19.7168 150.474 17.0584C153.301 15.0134 155.749 11.4758 156.917 10.9962C157.873 10.6037 158.816 10.6532 158.845 10.6555Z" fill="url(#paint4_linear_658_17)"/>
<path d="M166.702 13.1848C166.702 9.93442 169.35 8.29718 171.999 8.29718C174.647 8.29718 177.296 9.93442 177.296 13.1848V21.2025H175.057V13.4497C175.057 11.4753 173.54 10.5123 172.023 10.5123C170.482 10.5123 168.965 11.4753 168.965 13.4497V21.2025H166.702V13.1848Z" fill="#F3F6FB"/>
<path d="M179.634 13.1848C179.634 9.93442 182.282 8.29718 184.931 8.29718C187.579 8.29718 190.228 9.93442 190.228 13.1848V21.2025H187.989V13.4497C187.989 11.4753 186.472 10.5123 184.955 10.5123C183.414 10.5123 181.897 11.4753 181.897 13.4497V21.2025H179.634V13.1848Z" fill="#F3F6FB"/>
<path d="M201.186 16.9408H203.593V17.3501C203.593 19.9023 201.089 21.5636 198.248 21.5636C195.287 21.5636 192.229 19.6615 192.229 14.9424C192.229 11.6198 194.035 8.29718 198.128 8.29718C201.45 8.29718 203.328 10.3678 203.328 12.631V14.2201C203.328 14.5813 203.015 14.8943 202.654 14.8943H194.613V14.9424C194.613 18.0002 196.491 19.2522 198.272 19.2522C199.837 19.2522 201.186 18.3854 201.186 16.9408ZM201.065 12.8718C201.065 11.379 199.572 10.5363 198.031 10.5363C196.587 10.5363 195.094 11.2587 194.709 12.8718H201.065Z" fill="#F3F6FB"/>
<path d="M211.394 10.4641C206.506 10.4641 206.506 19.4208 211.394 19.4208C213.296 19.4208 214.331 18.2169 214.331 16.9408H216.739V17.3501C216.739 19.3726 215.174 21.5636 211.394 21.5636C203.208 21.5636 203.208 8.29718 211.394 8.29718C215.174 8.29718 216.739 10.4882 216.739 12.5107V12.944H214.331C214.331 11.668 213.296 10.4641 211.394 10.4641Z" fill="#F3F6FB"/>
<path d="M223.936 18.9874H224.755V21.2025H223.118C221.312 21.2025 219.675 19.9745 219.675 17.8076V10.6086H218.013V8.65834H219.675V6.22656H221.914V8.65834H223.888V10.6086H221.914V17.1816C221.914 18.5781 222.732 18.9874 223.936 18.9874Z" fill="#F3F6FB"/>
<path d="M16.2284 4.61433C15.2812 3.79748 14.3123 3.19354 13.3216 2.80249C12.331 2.41145 11.2882 2.21592 10.1932 2.21592C7.72531 2.21592 5.71795 2.99801 4.17115 4.56219C2.63304 6.12637 1.86398 8.16415 1.86398 10.6755C1.86398 11.9356 2.05081 13.0696 2.42448 14.0776C2.80683 15.0857 3.38471 15.9807 4.15811 16.7628C4.92282 17.5275 5.79616 18.1097 6.77812 18.5095C7.76876 18.9092 8.82893 19.1091 9.95862 19.1091C11.0535 19.1091 12.1224 18.9222 13.1652 18.5486C14.208 18.1749 15.1943 17.6231 16.1241 16.8931V18.9266C15.1856 19.5001 14.1906 19.939 13.1391 20.2431C12.0963 20.5559 11.0622 20.7124 10.0368 20.7124C8.65513 20.7124 7.33427 20.4647 6.07423 19.9694C4.8142 19.474 3.73231 18.7789 2.82856 17.8838C1.89874 16.9627 1.19486 15.8938 0.716916 14.6772C0.238972 13.4606 0 12.1267 0 10.6755C0 9.25039 0.243317 7.92084 0.729951 6.68687C1.22527 5.45291 1.9335 4.3884 2.85463 3.49334C3.74969 2.61566 4.82723 1.92916 6.08727 1.43383C7.35599 0.938508 8.67251 0.690846 10.0368 0.690846C11.2534 0.690846 12.3787 0.860299 13.4128 1.19921C14.4556 1.52942 15.4028 2.02909 16.2544 2.69821L16.2284 4.61433Z" fill="#F3F6FB"/>
<path d="M24.519 19.2134C25.7878 19.2134 26.861 18.7571 27.7387 17.8447C28.625 16.9236 29.0682 15.7982 29.0682 14.4687C29.0682 13.1217 28.6294 11.9921 27.7517 11.0796C26.874 10.1672 25.7965 9.71095 24.519 9.71095C23.2503 9.71095 22.1771 10.1672 21.2994 11.0796C20.4218 11.9921 19.9829 13.1217 19.9829 14.4687C19.9829 15.7982 20.4218 16.9236 21.2994 17.8447C22.1771 18.7571 23.2503 19.2134 24.519 19.2134ZM24.4669 20.7124C23.6414 20.7124 22.8506 20.5472 22.0946 20.217C21.3386 19.8955 20.652 19.4306 20.0351 18.8223C19.4528 18.2488 19.0097 17.5883 18.7055 16.841C18.4014 16.0937 18.2493 15.2942 18.2493 14.4426C18.2493 13.5997 18.4057 12.8002 18.7185 12.0442C19.0314 11.2882 19.4789 10.619 20.0611 10.0368C20.652 9.44591 21.3255 8.99404 22.0815 8.6812C22.8376 8.36837 23.6327 8.21195 24.4669 8.21195C25.3185 8.21195 26.1267 8.36837 26.8914 8.6812C27.6648 8.99404 28.3513 9.44591 28.9509 10.0368C29.5505 10.6277 30.0067 11.3012 30.3196 12.0572C30.6411 12.8132 30.8018 13.6084 30.8018 14.4426C30.8018 15.2768 30.6454 16.072 30.3326 16.828C30.0198 17.5753 29.5679 18.2401 28.977 18.8223C28.3687 19.4306 27.6735 19.8955 26.8914 20.217C26.118 20.5472 25.3098 20.7124 24.4669 20.7124Z" fill="#F3F6FB"/>
<path d="M33.5918 20.204V8.6421H35.1169V10.4279C35.5861 9.68923 36.1597 9.13742 36.8375 8.77245C37.524 8.39878 38.3104 8.21195 39.1968 8.21195C40.509 8.21195 41.53 8.57692 42.26 9.30687C42.9899 10.0368 43.3549 11.0535 43.3549 12.357V20.204H41.7256V13.0739C41.7256 11.9182 41.4822 11.0622 40.9956 10.5061C40.5177 9.94124 39.7747 9.65882 38.7666 9.65882C37.5414 9.65882 36.6376 10.0238 36.0554 10.7537C35.4819 11.475 35.1951 12.6134 35.1951 14.1689V20.204H33.5918Z" fill="#F3F6FB"/>
<path d="M45.6626 18.1445L47.1877 17.2712C47.4397 17.9142 47.8047 18.4008 48.2826 18.7311C48.7605 19.0526 49.3471 19.2134 50.0423 19.2134C50.7201 19.2134 51.2589 19.0439 51.6586 18.705C52.0584 18.3574 52.2582 17.8968 52.2582 17.3233C52.2582 16.4369 51.4718 15.6853 49.8989 15.0683C49.7338 15.0074 49.6035 14.9553 49.5079 14.9119C48.2913 14.4339 47.4397 13.9429 46.953 13.4389C46.4664 12.9262 46.2231 12.2962 46.2231 11.5489C46.2231 10.5669 46.5707 9.76309 47.2659 9.13742C47.9611 8.50306 48.8605 8.18588 49.9641 8.18588C50.9026 8.18588 51.7021 8.39009 52.3625 8.79852C53.0229 9.20694 53.5052 9.78916 53.8094 10.5452L52.3364 11.3664C52.1539 10.8189 51.8498 10.4018 51.424 10.115C50.9982 9.82827 50.4768 9.68488 49.8598 9.68488C49.3037 9.68488 48.8431 9.84999 48.4781 10.1802C48.1218 10.5017 47.9437 10.9058 47.9437 11.3924C47.9437 11.8704 48.1218 12.2658 48.4781 12.5786C48.8344 12.8915 49.573 13.2347 50.694 13.6084C51.9628 14.0516 52.8144 14.5338 53.2489 15.0552C53.6921 15.5766 53.9136 16.2979 53.9136 17.219C53.9136 18.2792 53.5356 19.1265 52.7796 19.7608C52.0236 20.3952 51.0069 20.7124 49.7295 20.7124C48.7475 20.7124 47.9002 20.4908 47.1877 20.0476C46.4838 19.5957 45.9754 18.9613 45.6626 18.1445Z" fill="#F3F6FB"/>
<path d="M61.9436 19.2134C63.2124 19.2134 64.2856 18.7571 65.1632 17.8447C66.0496 16.9236 66.4928 15.7982 66.4928 14.4687C66.4928 13.1217 66.0539 11.9921 65.1763 11.0796C64.2986 10.1672 63.221 9.71095 61.9436 9.71095C60.6749 9.71095 59.6017 10.1672 58.724 11.0796C57.8463 11.9921 57.4075 13.1217 57.4075 14.4687C57.4075 15.7982 57.8463 16.9236 58.724 17.8447C59.6017 18.7571 60.6749 19.2134 61.9436 19.2134ZM61.8915 20.7124C61.066 20.7124 60.2752 20.5472 59.5192 20.217C58.7631 19.8955 58.0766 19.4306 57.4596 18.8223C56.8774 18.2488 56.4342 17.5883 56.1301 16.841C55.8259 16.0937 55.6739 15.2942 55.6739 14.4426C55.6739 13.5997 55.8303 12.8002 56.1431 12.0442C56.456 11.2882 56.9035 10.619 57.4857 10.0368C58.0766 9.44591 58.7501 8.99404 59.5061 8.6812C60.2621 8.36837 61.0573 8.21195 61.8915 8.21195C62.7431 8.21195 63.5513 8.36837 64.316 8.6812C65.0894 8.99404 65.7759 9.44591 66.3755 10.0368C66.9751 10.6277 67.4313 11.3012 67.7441 12.0572C68.0657 12.8132 68.2264 13.6084 68.2264 14.4426C68.2264 15.2768 68.07 16.072 67.7572 16.828C67.4443 17.5753 66.9925 18.2401 66.4015 18.8223C65.7933 19.4306 65.0981 19.8955 64.316 20.217C63.5426 20.5472 62.7344 20.7124 61.8915 20.7124Z" fill="#F3F6FB"/>
<path d="M72.7761 20.204H71.1207V0H72.7761V20.204Z" fill="#F3F6FB"/>
<path d="M77.3779 14.5469C77.3779 16.0415 77.7125 17.193 78.3816 18.0011C79.0594 18.8093 80.024 19.2134 81.2753 19.2134C82.4919 19.2134 83.4478 18.7745 84.143 17.8968C84.8469 17.0105 85.1988 15.7939 85.1988 14.2471C85.1988 12.8306 84.8512 11.7183 84.156 10.9102C83.4608 10.0933 82.5093 9.68488 81.3014 9.68488C80.0935 9.68488 79.1376 10.1194 78.4337 10.9884C77.7299 11.8487 77.3779 13.0348 77.3779 14.5469ZM85.1728 20.204V18.0924C84.7904 18.944 84.2516 19.5957 83.5564 20.0476C82.8699 20.4908 82.0574 20.7124 81.1189 20.7124C79.4592 20.7124 78.1209 20.1432 77.1042 19.0048C76.0962 17.8664 75.5921 16.3631 75.5921 14.4947C75.5921 12.6438 76.0918 11.1361 77.0912 9.97165C78.0905 8.79852 79.3809 8.21195 80.9625 8.21195C81.9445 8.21195 82.7917 8.4292 83.5043 8.86369C84.2256 9.28949 84.7817 9.91951 85.1728 10.7537V8.6421H86.776V20.204H85.1728Z" fill="#F3F6FB"/>
<path d="M99.5377 10.7537C98.9989 10.3801 98.4254 10.102 97.8171 9.91951C97.2088 9.72833 96.5831 9.63274 95.94 9.63274C94.5062 9.63274 93.3635 10.0933 92.5119 11.0144C91.6603 11.9269 91.2345 13.1478 91.2345 14.6772C91.2345 16.0329 91.6733 17.1495 92.551 18.0272C93.4374 18.9049 94.567 19.3437 95.94 19.3437C96.5657 19.3437 97.1957 19.2351 97.8301 19.0178C98.4732 18.8006 99.1032 18.4747 99.7201 18.0402V19.7999C99.1553 20.1214 98.5296 20.3604 97.8431 20.5168C97.1566 20.6819 96.4223 20.7645 95.6402 20.7645C93.8762 20.7645 92.4293 20.1866 91.2997 19.0309C90.17 17.8664 89.6051 16.3804 89.6051 14.5729C89.6051 12.6872 90.1917 11.1578 91.3648 9.98469C92.5466 8.80286 94.0804 8.21195 95.9661 8.21195C96.6613 8.21195 97.3131 8.28147 97.9213 8.42051C98.5383 8.55085 99.0858 8.74203 99.5637 8.99404L99.5377 10.7537Z" fill="#F3F6FB"/>
<path d="M101.884 4.13204C101.884 3.79314 102.006 3.50637 102.249 3.27174C102.493 3.02843 102.784 2.90677 103.123 2.90677C103.462 2.90677 103.753 3.02843 103.996 3.27174C104.248 3.50637 104.374 3.79314 104.374 4.13204C104.374 4.47964 104.252 4.77075 104.009 5.00538C103.775 5.24001 103.479 5.35732 103.123 5.35732C102.775 5.35732 102.48 5.24001 102.236 5.00538C102.002 4.77075 101.884 4.47964 101.884 4.13204ZM102.289 20.204V8.6421H103.944V20.204H102.289Z" fill="#F3F6FB"/>
<path d="M113.108 19.2134C114.377 19.2134 115.45 18.7571 116.328 17.8447C117.214 16.9236 117.657 15.7982 117.657 14.4687C117.657 13.1217 117.218 11.9921 116.341 11.0796C115.463 10.1672 114.385 9.71095 113.108 9.71095C111.839 9.71095 110.766 10.1672 109.888 11.0796C109.011 11.9921 108.572 13.1217 108.572 14.4687C108.572 15.7982 109.011 16.9236 109.888 17.8447C110.766 18.7571 111.839 19.2134 113.108 19.2134ZM113.056 20.7124C112.23 20.7124 111.44 20.5472 110.683 20.217C109.927 19.8955 109.241 19.4306 108.624 18.8223C108.042 18.2488 107.599 17.5883 107.294 16.841C106.99 16.0937 106.838 15.2942 106.838 14.4426C106.838 13.5997 106.995 12.8002 107.307 12.0442C107.62 11.2882 108.068 10.619 108.65 10.0368C109.241 9.44591 109.914 8.99404 110.67 8.6812C111.426 8.36837 112.222 8.21195 113.056 8.21195C113.907 8.21195 114.716 8.36837 115.48 8.6812C116.254 8.99404 116.94 9.44591 117.54 10.0368C118.139 10.6277 118.596 11.3012 118.908 12.0572C119.23 12.8132 119.391 13.6084 119.391 14.4426C119.391 15.2768 119.234 16.072 118.922 16.828C118.609 17.5753 118.157 18.2401 117.566 18.8223C116.958 19.4306 116.262 19.8955 115.48 20.217C114.707 20.5472 113.899 20.7124 113.056 20.7124Z" fill="#F3F6FB"/>
<path d="M122.181 20.204V8.6421H123.706V10.4279C124.175 9.68923 124.749 9.13742 125.426 8.77245C126.113 8.39878 126.899 8.21195 127.786 8.21195C129.098 8.21195 130.119 8.57692 130.849 9.30687C131.579 10.0368 131.944 11.0535 131.944 12.357V20.204H130.314V13.0739C130.314 11.9182 130.071 11.0622 129.585 10.5061C129.107 9.94124 128.364 9.65882 127.356 9.65882C126.13 9.65882 125.227 10.0238 124.644 10.7537C124.071 11.475 123.784 12.6134 123.784 14.1689V20.204H122.181Z" fill="#F3F6FB"/>
<defs>
<linearGradient id="paint0_linear_658_17" x1="152.199" y1="14.6316" x2="164.364" y2="14.6316" gradientUnits="userSpaceOnUse">
<stop stop-color="#B6C8E8"/>
<stop offset="1" stop-color="#2269E8"/>
</linearGradient>
<linearGradient id="paint1_linear_658_17" x1="145.808" y1="14.631" x2="164.376" y2="14.631" gradientUnits="userSpaceOnUse">
<stop stop-color="#2269E8"/>
<stop offset="1" stop-color="#B6C8E8"/>
</linearGradient>
<linearGradient id="paint2_linear_658_17" x1="140.033" y1="14.6292" x2="158.869" y2="14.6292" gradientUnits="userSpaceOnUse">
<stop stop-color="#D4DBE7"/>
<stop offset="1" stop-color="#B6C8E8"/>
</linearGradient>
<linearGradient id="paint3_linear_658_17" x1="140.001" y1="14.6291" x2="158.576" y2="14.6291" gradientUnits="userSpaceOnUse">
<stop stop-color="white"/>
<stop offset="1" stop-color="#005BFF"/>
</linearGradient>
<linearGradient id="paint4_linear_658_17" x1="163.912" y1="13.0018" x2="152.872" y2="13.3827" gradientUnits="userSpaceOnUse">
<stop stop-color="#2269E8"/>
<stop offset="1" stop-color="#B6C8E8"/>
</linearGradient>
</defs>
</svg>
