<svg width="59" height="60" viewBox="0 0 59 60" fill="none" xmlns="http://www.w3.org/2000/svg">
<g filter="url(#filter0_d_249_10)">
<path d="M34.1339 21.6738C36.2302 23.7737 40.1884 23.2032 42.9813 20.4069C45.7741 17.6106 46.341 13.6454 44.2482 11.549C42.1518 9.44917 38.1936 10.0161 35.4008 12.8124C32.608 15.6123 32.041 19.5775 34.1339 21.6738Z" fill="#E9C161"/>
<path d="M55.3389 11.591C54.0685 16.9597 50.6702 24.2812 42.5998 33.3526L41.7598 41.78C41.5361 43.7992 40.6327 45.6824 39.198 47.1206L30.8616 55.4711C30.5969 55.7387 30.2543 55.9158 29.8829 55.977C29.5115 56.0383 29.1302 55.9805 28.7936 55.812C28.457 55.6435 28.1823 55.3729 28.0087 55.0389C27.8352 54.7048 27.7717 54.3245 27.8273 53.9522L28.7722 47.3061C28.9122 46.3262 28.7267 45.2308 28.3137 43.9604C28.0533 43.1828 27.7626 42.4158 27.4423 41.661L27.1553 40.9541C24.303 40.2646 21.6327 38.6372 19.4873 36.4849C17.3385 34.3325 15.7111 31.6587 15.0251 28.8029L14.3147 28.5124C13.5609 28.1964 12.7964 27.9069 12.0223 27.6444C10.7519 27.228 9.66 27.0425 8.68006 27.1825L2.04451 28.1274C1.67251 28.1821 1.29274 28.1179 0.959369 27.944C0.626001 27.7701 0.356065 27.4954 0.188068 27.159C0.0200714 26.8226 -0.0374055 26.4418 0.0238369 26.0708C0.0850793 25.6998 0.261913 25.3577 0.529112 25.0931L8.86555 16.7427C10.3005 15.3078 12.1798 14.3978 14.1992 14.1739H14.2202L22.6196 13.3409C31.5195 5.42444 38.806 2.03667 44.1817 0.727757C47.2965 -0.0316919 49.7463 -0.0841884 51.4612 0.0698012C52.3151 0.150296 52.9836 0.279787 53.4561 0.395279C53.6894 0.455942 53.876 0.508438 54.016 0.552769C54.66 0.762755 54.9925 1.00774 55.2444 1.5852L55.3459 1.84068C55.6175 2.66008 55.8017 3.50589 55.8954 4.36401C56.0879 6.0614 56.0739 8.48674 55.3389 11.591ZM38.4421 37.7518L38.5821 37.6118L38.2076 41.395C38.0695 42.6034 37.5268 43.7295 36.6677 44.5903L32.125 49.14L32.314 47.8101C32.566 46.0392 32.195 44.3348 31.712 42.8474C31.5347 42.3175 31.3433 41.7923 31.1381 41.2725C33.7209 41.045 36.2547 39.9426 38.4421 37.7518ZM18.2204 17.4986C16.0331 19.6895 14.9306 22.2268 14.7067 24.8131C14.1869 24.6079 13.6617 24.4165 13.1318 24.2392C11.6479 23.7562 9.94698 23.3852 8.1761 23.6372L6.84619 23.8262L11.3959 19.2765C12.2533 18.4156 13.3767 17.8731 14.5807 17.7366L18.3604 17.3621L18.2204 17.4986ZM51.1392 3.63606C49.8093 3.51707 47.7549 3.54157 45.0286 4.20652C39.576 5.53643 31.32 9.44217 20.7508 20.029C18.5809 22.1988 17.9544 24.7186 18.3464 27.207C18.7209 29.5728 20.0368 31.9737 22.0142 33.9545C23.988 35.9319 26.3889 37.2478 28.7477 37.6258C31.2325 38.0177 33.7489 37.3913 35.9152 35.2179C46.691 24.4282 50.5862 16.1652 51.8602 10.7651C52.5006 8.06676 52.4901 6.0579 52.3431 4.76999C52.3064 4.43752 52.2539 4.107 52.1856 3.77955C51.8383 3.71408 51.4879 3.66619 51.1357 3.63606H51.1392Z" fill="#E9C161"/>
<path d="M24.534 42.4834C22.2059 41.2289 20.078 39.6341 18.2204 37.7518C16.2292 35.7781 14.5626 33.5019 13.2823 31.0077C9.42551 34.4795 6.40522 48.6955 6.84619 49.1365C7.28366 49.5775 20.6213 46.0007 24.534 42.4799V42.4834Z" fill="#E9C161"/>
</g>
<defs>
<filter id="filter0_d_249_10" x="0" y="0" width="59" height="60.0009" filterUnits="userSpaceOnUse" color-interpolation-filters="sRGB">
<feFlood flood-opacity="0" result="BackgroundImageFix"/>
<feColorMatrix in="SourceAlpha" type="matrix" values="0 0 0 0 0 0 0 0 0 0 0 0 0 0 0 0 0 0 127 0" result="hardAlpha"/>
<feOffset dx="2" dy="3"/>
<feGaussianBlur stdDeviation="0.5"/>
<feComposite in2="hardAlpha" operator="out"/>
<feColorMatrix type="matrix" values="0 0 0 0 0.224889 0 0 0 0 0.355181 0 0 0 0 0.586667 0 0 0 1 0"/>
<feBlend mode="normal" in2="BackgroundImageFix" result="effect1_dropShadow_249_10"/>
<feBlend mode="normal" in="SourceGraphic" in2="effect1_dropShadow_249_10" result="shape"/>
</filter>
</defs>
</svg>
